<svg width="170" height="30" viewBox="0 0 170 30" fill="none" xmlns="http://www.w3.org/2000/svg"><path d="M15.759 0C16.3775 2.82621e-05 16.9739 0.219356 17.4318 0.615212C17.8896 1.01107 18.1762 1.55507 18.2356 2.14114L18.2472 2.36851V27.6327C18.2469 28.2409 18.0007 28.8257 17.5598 29.266C17.1188 29.7062 16.5168 29.968 15.8785 29.9973C15.2403 30.0265 14.6146 29.8209 14.1313 29.423C13.648 29.0251 13.344 28.4655 13.2823 27.86L13.2707 27.6327V2.36851C13.2707 1.74034 13.5329 1.1379 13.9995 0.693722C14.4661 0.249539 15.099 0 15.759 0ZM9.1236 4.73703C9.78353 4.73703 10.4164 4.98657 10.8831 5.43075C11.3497 5.87493 11.6119 6.47737 11.6119 7.10554V22.8956C11.6119 23.5238 11.3497 24.1262 10.8831 24.5704C10.4164 25.0146 9.78353 25.2641 9.1236 25.2641C8.46368 25.2641 7.83078 25.0146 7.36414 24.5704C6.8975 24.1262 6.63535 23.5238 6.63535 22.8956V7.10554C6.63535 6.47737 6.8975 5.87493 7.36414 5.43075C7.83078 4.98657 8.46368 4.73703 9.1236 4.73703ZM22.3943 4.73703C23.0542 4.73703 23.6871 4.98657 24.1538 5.43075C24.6204 5.87493 24.8826 6.47737 24.8826 7.10554V22.8956C24.8826 23.5238 24.6204 24.1262 24.1538 24.5704C23.6871 25.0146 23.0542 25.2641 22.3943 25.2641C21.7344 25.2641 21.1015 25.0146 20.6348 24.5704C20.1682 24.1262 19.906 23.5238 19.906 22.8956V7.10554C19.906 6.47737 20.1682 5.87493 20.6348 5.43075C21.1015 4.98657 21.7344 4.73703 22.3943 4.73703ZM2.48826 9.47405C3.14818 9.47405 3.78108 9.72359 4.24772 10.1678C4.71436 10.612 4.97651 11.2144 4.97651 11.8426V18.1586C4.97651 18.7868 4.71436 19.3892 4.24772 19.8334C3.78108 20.2776 3.14818 20.5271 2.48826 20.5271C1.82833 20.5271 1.19543 20.2776 0.728793 19.8334C0.262155 19.3892 0 18.7868 0 18.1586V11.8426C0 11.2144 0.262155 10.612 0.728793 10.1678C1.19543 9.72359 1.82833 9.47405 2.48826 9.47405ZM29.0296 9.47405C29.6482 9.47408 30.2446 9.69341 30.7025 10.0893C31.1603 10.4851 31.4469 11.0291 31.5063 11.6152L31.5179 11.8426V18.1586C31.5176 18.7669 31.2714 19.3517 30.8305 19.7919C30.3895 20.2321 29.7875 20.494 29.1492 20.5232C28.511 20.5524 27.8853 20.3468 27.402 19.9489C26.9187 19.551 26.6147 18.9914 26.553 18.386L26.5414 18.1586V11.8426C26.5414 11.2144 26.8036 10.612 27.2702 10.1678C27.7368 9.72359 28.3697 9.47405 29.0296 9.47405Z" fill="#6B9EFF"/>
<path d="M63.2107 25.3015C61.7366 25.3015 60.408 24.9877 59.2249 24.36C58.0611 23.7138 57.1398 22.8369 56.461 21.7292C55.7821 20.6031 55.4427 19.32 55.4427 17.88C55.4427 16.4215 55.7821 15.1385 56.461 14.0308C57.1398 12.9231 58.0611 12.0554 59.2249 11.4277C60.3886 10.8 61.7172 10.4862 63.2107 10.4862C64.7235 10.4862 66.0618 10.8 67.2256 11.4277C68.4087 12.0554 69.33 12.9231 69.9895 14.0308C70.6683 15.1385 71.0077 16.4215 71.0077 17.88C71.0077 19.32 70.6683 20.6031 69.9895 21.7292C69.33 22.8369 68.4087 23.7138 67.2256 24.36C66.0424 24.9877 64.7041 25.3015 63.2107 25.3015ZM63.2107 23.5569C64.3162 23.5569 65.2957 23.3262 66.1491 22.8646C67.0025 22.3846 67.6717 21.72 68.1566 20.8708C68.6609 20.0031 68.913 19.0062 68.913 17.88C68.913 16.7354 68.6609 15.7385 68.1566 14.8892C67.6717 14.04 67.0025 13.3846 66.1491 12.9231C65.2957 12.4431 64.3259 12.2031 63.2398 12.2031C62.1536 12.2031 61.1838 12.4431 60.3304 12.9231C59.477 13.3846 58.7982 14.04 58.2939 14.8892C57.7896 15.7385 57.5374 16.7354 57.5374 17.88C57.5374 19.0062 57.7896 20.0031 58.2939 20.8708C58.7982 21.72 59.477 22.3846 60.3304 22.8646C61.1838 23.3262 62.1439 23.5569 63.2107 23.5569Z" fill="white"/>
<path d="M75.2249 25.1631V10.6246H77.2905V25.1631H75.2249ZM76.2723 7.41231C75.8456 7.41231 75.4867 7.27385 75.1958 6.99692C74.9049 6.72 74.7594 6.38769 74.7594 6C74.7594 5.61231 74.9049 5.28923 75.1958 5.03077C75.4867 4.75384 75.8456 4.61538 76.2723 4.61538C76.699 4.61538 77.0578 4.74461 77.3487 5.00308C77.6397 5.26154 77.7851 5.58461 77.7851 5.97231C77.7851 6.37846 77.6397 6.72 77.3487 6.99692C77.0772 7.27385 76.7184 7.41231 76.2723 7.41231Z" fill="white"/>
<path d="M89.3805 25.3015C87.8676 25.3015 86.5099 24.9877 85.3074 24.36C84.1242 23.7138 83.1933 22.8369 82.5144 21.7292C81.8356 20.6031 81.4961 19.32 81.4961 17.88C81.4961 16.4215 81.8356 15.1385 82.5144 14.0308C83.1933 12.9231 84.1242 12.0554 85.3074 11.4277C86.5099 10.8 87.8676 10.4862 89.3805 10.4862C90.68 10.4862 91.8534 10.7262 92.9008 11.2062C93.9481 11.6862 94.7724 12.4062 95.3737 13.3662L93.8317 14.3631C93.3081 13.6246 92.6583 13.08 91.8825 12.7292C91.1067 12.3785 90.263 12.2031 89.3514 12.2031C88.2652 12.2031 87.2857 12.4431 86.4129 12.9231C85.5401 13.3846 84.8516 14.04 84.3473 14.8892C83.843 15.7385 83.5909 16.7354 83.5909 17.88C83.5909 19.0246 83.843 20.0215 84.3473 20.8708C84.8516 21.72 85.5401 22.3846 86.4129 22.8646C87.2857 23.3262 88.2652 23.5569 89.3514 23.5569C90.263 23.5569 91.1067 23.3815 91.8825 23.0308C92.6583 22.68 93.3081 22.1446 93.8317 21.4246L95.3737 22.4215C94.7724 23.3631 93.9481 24.0831 92.9008 24.5815C91.8534 25.0615 90.68 25.3015 89.3805 25.3015Z" fill="white"/>
<path d="M136.064 25.1631V4.61538H140.603V25.1631H136.064Z" fill="white"/>
<path d="M162.61 25.3846C161.272 25.3846 159.982 25.2369 158.741 24.9415C157.519 24.6277 156.549 24.24 155.831 23.7785L157.344 20.6769C158.062 21.1015 158.906 21.4523 159.875 21.7292C160.865 21.9877 161.834 22.1169 162.785 22.1169C163.832 22.1169 164.569 21.9969 164.996 21.7569C165.442 21.5169 165.665 21.1846 165.665 20.76C165.665 20.4092 165.491 20.1508 165.141 19.9846C164.812 19.8 164.366 19.6615 163.803 19.5692C163.241 19.4769 162.62 19.3846 161.941 19.2923C161.282 19.2 160.613 19.08 159.934 18.9323C159.255 18.7662 158.634 18.5262 158.072 18.2123C157.509 17.8985 157.053 17.4738 156.704 16.9385C156.375 16.4031 156.21 15.7108 156.21 14.8615C156.21 13.92 156.491 13.0892 157.053 12.3692C157.635 11.6492 158.469 11.0862 159.555 10.68C160.642 10.2554 161.941 10.0431 163.454 10.0431C164.521 10.0431 165.607 10.1538 166.712 10.3754C167.818 10.5969 168.739 10.92 169.476 11.3446L167.963 14.4185C167.207 13.9938 166.441 13.7077 165.665 13.56C164.909 13.3938 164.172 13.3108 163.454 13.3108C162.445 13.3108 161.708 13.44 161.243 13.6985C160.777 13.9569 160.545 14.2892 160.545 14.6954C160.545 15.0646 160.709 15.3415 161.039 15.5262C161.388 15.7108 161.844 15.8585 162.407 15.9692C162.969 16.08 163.58 16.1815 164.24 16.2738C164.918 16.3477 165.597 16.4677 166.276 16.6338C166.955 16.8 167.566 17.04 168.109 17.3538C168.671 17.6492 169.127 18.0646 169.476 18.6C169.825 19.1169 170 19.8 170 20.6492C170 21.5723 169.709 22.3938 169.127 23.1138C168.545 23.8154 167.702 24.3692 166.596 24.7754C165.51 25.1815 164.181 25.3846 162.61 25.3846Z" fill="white"/>
<path d="M45.57 25.1631L38.7913 10.6246H40.9442L46.6646 23.0156L52.4652 10.6246H54.5017L47.6939 25.1631H45.57Z" fill="white"/>
<path fill-rule="evenodd" clip-rule="evenodd" d="M101.474 24.36C102.677 24.9877 104.073 25.3015 105.664 25.3015C106.886 25.3015 108.001 25.0985 109.009 24.6923C110.037 24.2862 110.891 23.6954 111.57 22.92L110.406 21.6462C109.824 22.2923 109.126 22.7723 108.311 23.0862C107.516 23.4 106.653 23.5569 105.722 23.5569C104.539 23.5569 103.482 23.3262 102.551 22.8646C101.639 22.3846 100.921 21.7292 100.398 20.8985C99.9749 20.1863 99.7293 19.3832 99.661 18.4892H112.501V18.1846C112.52 18.0738 112.53 17.9723 112.53 17.88C112.53 16.4215 112.21 15.1385 111.57 14.0308C110.93 12.9046 110.047 12.0369 108.922 11.4277C107.817 10.8 106.546 10.4862 105.111 10.4862C103.695 10.4862 102.415 10.8092 101.271 11.4554C100.146 12.0831 99.2534 12.9508 98.594 14.0585C97.9539 15.1662 97.6339 16.44 97.6339 17.88C97.6339 19.32 97.9733 20.6031 98.6522 21.7292C99.331 22.8369 100.272 23.7138 101.474 24.36ZM99.6701 17.0215H110.555C110.481 16.204 110.247 15.4655 109.853 14.8062C109.388 13.9754 108.748 13.3292 107.933 12.8677C107.118 12.4062 106.178 12.1754 105.111 12.1754C104.064 12.1754 103.123 12.4062 102.289 12.8677C101.455 13.3292 100.805 13.9754 100.34 14.8062C99.9685 15.4684 99.7454 16.2068 99.6701 17.0215ZM99.6414 17.6585V17.9631C99.6414 18.1362 99.6475 18.3061 99.6598 18.4728C99.6602 18.4783 99.6606 18.4838 99.661 18.4892H99.205V17.0215H99.6701C99.6509 17.2289 99.6414 17.4412 99.6414 17.6585Z" fill="white"/>
<path d="M99.205 17.0215V18.4892H99.661L99.6598 18.4728C99.6475 18.3061 99.6414 18.1362 99.6414 17.9631V17.6585C99.6414 17.4412 99.6509 17.2289 99.6701 17.0215H99.205Z" fill="white"/>
<path fill-rule="evenodd" clip-rule="evenodd" d="M128.779 10.7631C127.809 10.2831 126.704 10.0431 125.462 10.0431C124.124 10.0431 122.931 10.3108 121.884 10.8462C121.266 11.1619 120.733 11.5579 120.284 12.0342V10.2646H115.949V25.1631H120.487V17.7969C120.487 16.8738 120.642 16.1169 120.953 15.5262C121.282 14.9354 121.729 14.5015 122.291 14.2246C122.873 13.9292 123.523 13.7815 124.24 13.7815C125.249 13.7815 126.025 14.0677 126.568 14.64C127.13 15.2123 127.412 16.0985 127.412 17.2985V25.1631H131.95V16.6338C131.95 15.12 131.669 13.8831 131.106 12.9231C130.544 11.9446 129.768 11.2246 128.779 10.7631ZM120.284 14.3908V12.0342C120.281 12.0375 120.278 12.0407 120.275 12.0439C119.966 12.3727 119.698 12.7396 119.469 13.1446L120.284 14.3908Z" fill="white"/>
<path d="M119.469 13.1446L120.284 14.3908V12.0342L120.275 12.0439C119.966 12.3727 119.698 12.7396 119.469 13.1446Z" fill="white"/>
<path fill-rule="evenodd" clip-rule="evenodd" d="M144.815 10.2646V25.1631H149.353V18.1292C149.353 16.7077 149.732 15.6646 150.488 15C151.264 14.3169 152.272 13.9754 153.514 13.9754C153.688 13.9754 153.853 13.9846 154.008 14.0031C154.164 14.0031 154.338 14.0123 154.532 14.0308V10.0431C153.058 10.0431 151.807 10.32 150.779 10.8738C150.121 11.2168 149.577 11.6658 149.15 12.2208V10.2646H144.815ZM149.15 14.4738V12.2208C149.139 12.2344 149.129 12.2481 149.119 12.2618C148.892 12.5625 148.699 12.8937 148.539 13.2554L149.15 14.4738Z" fill="white"/>
<path d="M148.539 13.2554L149.15 14.4738V12.2208C149.139 12.2344 149.129 12.2481 149.119 12.2618C148.892 12.5625 148.699 12.8937 148.539 13.2554Z" fill="white"/>
</svg>